<svg width="44" height="44" viewBox="0 0 44 44" fill="none" xmlns="http://www.w3.org/2000/svg">
<rect width="44" height="44" rx="6" fill="black"/>
<path d="M14.4167 32.8333C13.8208 32.8333 13.3108 32.6212 12.8865 32.1969C12.4622 31.7726 12.25 31.2625 12.25 30.6667V15.5C12.25 14.9042 12.4622 14.3941 12.8865 13.9698C13.3108 13.5455 13.8208 13.3333 14.4167 13.3333H15.5V11.1667H17.6667V13.3333H26.3333V11.1667H28.5V13.3333H29.5833C30.1792 13.3333 30.6892 13.5455 31.1135 13.9698C31.5378 14.3941 31.75 14.9042 31.75 15.5V30.6667C31.75 31.2625 31.5378 31.7726 31.1135 32.1969C30.6892 32.6212 30.1792 32.8333 29.5833 32.8333H14.4167ZM14.4167 30.6667H29.5833V19.8333H14.4167V30.6667ZM14.4167 17.6667H29.5833V15.5H14.4167V17.6667ZM22 24.1667C21.6931 24.1667 21.4358 24.0628 21.2281 23.8552C21.0205 23.6476 20.9167 23.3903 20.9167 23.0833C20.9167 22.7764 21.0205 22.5191 21.2281 22.3115C21.4358 22.1038 21.6931 22 22 22C22.3069 22 22.5642 22.1038 22.7719 22.3115C22.9795 22.5191 23.0833 22.7764 23.0833 23.0833C23.0833 23.3903 22.9795 23.6476 22.7719 23.8552C22.5642 24.0628 22.3069 24.1667 22 24.1667ZM16.8948 23.8552C16.6872 23.6476 16.5833 23.3903 16.5833 23.0833C16.5833 22.7764 16.6872 22.5191 16.8948 22.3115C17.1024 22.1038 17.3597 22 17.6667 22C17.9736 22 18.2309 22.1038 18.4385 22.3115C18.6462 22.5191 18.75 22.7764 18.75 23.0833C18.75 23.3903 18.6462 23.6476 18.4385 23.8552C18.2309 24.0628 17.9736 24.1667 17.6667 24.1667C17.3597 24.1667 17.1024 24.0628 16.8948 23.8552ZM26.3333 24.1667C26.0264 24.1667 25.7691 24.0628 25.5615 23.8552C25.3538 23.6476 25.25 23.3903 25.25 23.0833C25.25 22.7764 25.3538 22.5191 25.5615 22.3115C25.7691 22.1038 26.0264 22 26.3333 22C26.6403 22 26.8976 22.1038 27.1052 22.3115C27.3128 22.5191 27.4167 22.7764 27.4167 23.0833C27.4167 23.3903 27.3128 23.6476 27.1052 23.8552C26.8976 24.0628 26.6403 24.1667 26.3333 24.1667ZM22 28.5C21.6931 28.5 21.4358 28.3962 21.2281 28.1885C21.0205 27.9809 20.9167 27.7236 20.9167 27.4167C20.9167 27.1097 21.0205 26.8524 21.2281 26.6448C21.4358 26.4372 21.6931 26.3333 22 26.3333C22.3069 26.3333 22.5642 26.4372 22.7719 26.6448C22.9795 26.8524 23.0833 27.1097 23.0833 27.4167C23.0833 27.7236 22.9795 27.9809 22.7719 28.1885C22.5642 28.3962 22.3069 28.5 22 28.5ZM16.8948 28.1885C16.6872 27.9809 16.5833 27.7236 16.5833 27.4167C16.5833 27.1097 16.6872 26.8524 16.8948 26.6448C17.1024 26.4372 17.3597 26.3333 17.6667 26.3333C17.9736 26.3333 18.2309 26.4372 18.4385 26.6448C18.6462 26.8524 18.75 27.1097 18.75 27.4167C18.75 27.7236 18.6462 27.9809 18.4385 28.1885C18.2309 28.3962 17.9736 28.5 17.6667 28.5C17.3597 28.5 17.1024 28.3962 16.8948 28.1885ZM26.3333 28.5C26.0264 28.5 25.7691 28.3962 25.5615 28.1885C25.3538 27.9809 25.25 27.7236 25.25 27.4167C25.25 27.1097 25.3538 26.8524 25.5615 26.6448C25.7691 26.4372 26.0264 26.3333 26.3333 26.3333C26.6403 26.3333 26.8976 26.4372 27.1052 26.6448C27.3128 26.8524 27.4167 27.1097 27.4167 27.4167C27.4167 27.7236 27.3128 27.9809 27.1052 28.1885C26.8976 28.3962 26.6403 28.5 26.3333 28.5Z" fill="#E6FF5B"/>
</svg>
