<svg width="50" height="50" viewBox="0 0 50 50" fill="none" xmlns="http://www.w3.org/2000/svg">
<g clip-path="url(#clip0_139_2341)">
<path d="M32.8752 22.75C33.7433 22.75 34.4811 22.4462 35.0888 21.8385C35.6964 21.2309 36.0002 20.4931 36.0002 19.625C36.0002 18.7569 35.6964 18.0191 35.0888 17.4115C34.4811 16.8038 33.7433 16.5 32.8752 16.5C32.0072 16.5 31.2693 16.8038 30.6617 17.4115C30.0541 18.0191 29.7502 18.7569 29.7502 19.625C29.7502 20.4931 30.0541 21.2309 30.6617 21.8385C31.2693 22.4462 32.0072 22.75 32.8752 22.75ZM18.2919 22.75C19.16 22.75 19.8978 22.4462 20.5055 21.8385C21.1131 21.2309 21.4169 20.4931 21.4169 19.625C21.4169 18.7569 21.1131 18.0191 20.5055 17.4115C19.8978 16.8038 19.16 16.5 18.2919 16.5C17.4239 16.5 16.686 16.8038 16.0784 17.4115C15.4707 18.0191 15.1669 18.7569 15.1669 19.625C15.1669 20.4931 15.4707 21.2309 16.0784 21.8385C16.686 22.4462 17.4239 22.75 18.2919 22.75ZM19.1513 29.9635C17.2242 31.3003 15.8266 33.0625 14.9586 35.25H18.3961C19.16 33.9653 20.1756 32.9497 21.443 32.2031C22.7103 31.4566 24.0905 31.0833 25.5836 31.0833C27.0766 31.0833 28.4568 31.4566 29.7242 32.2031C30.9916 32.9497 32.0072 33.9653 32.7711 35.25H36.2086C35.3405 33.0625 33.943 31.3003 32.0159 29.9635C30.0888 28.6267 27.9447 27.9583 25.5836 27.9583C23.2225 27.9583 21.0784 28.6267 19.1513 29.9635ZM17.4586 44.026C14.9239 42.9323 12.719 41.4479 10.844 39.5729C8.96899 37.6979 7.48462 35.4931 6.39087 32.9583C5.29712 30.4236 4.75024 27.7153 4.75024 24.8333C4.75024 21.9514 5.29712 19.2431 6.39087 16.7083C7.48462 14.1736 8.96899 11.9688 10.844 10.0938C12.719 8.21875 14.9239 6.73438 17.4586 5.64063C19.9933 4.54688 22.7016 4 25.5836 4C28.4655 4 31.1739 4.54688 33.7086 5.64063C36.2433 6.73438 38.4482 8.21875 40.3232 10.0938C42.1982 11.9688 43.6825 14.1736 44.7763 16.7083C45.87 19.2431 46.4169 21.9514 46.4169 24.8333C46.4169 27.7153 45.87 30.4236 44.7763 32.9583C43.6825 35.4931 42.1982 37.6979 40.3232 39.5729C38.4482 41.4479 36.2433 42.9323 33.7086 44.026C31.1739 45.1198 28.4655 45.6667 25.5836 45.6667C22.7016 45.6667 19.9933 45.1198 17.4586 44.026ZM37.4065 36.6563C40.6357 33.4271 42.2502 29.4861 42.2502 24.8333C42.2502 20.1806 40.6357 16.2396 37.4065 13.0104C34.1773 9.78125 30.2364 8.16667 25.5836 8.16667C20.9308 8.16667 16.9898 9.78125 13.7607 13.0104C10.5315 16.2396 8.91691 20.1806 8.91691 24.8333C8.91691 29.4861 10.5315 33.4271 13.7607 36.6563C16.9898 39.8854 20.9308 41.5 25.5836 41.5C30.2364 41.5 34.1773 39.8854 37.4065 36.6563Z" fill="#C32B14"/>
</g>
<defs>
<clipPath id="clip0_139_2341">
<rect width="50" height="50" fill="white"/>
</clipPath>
</defs>
</svg>
