<svg width="50" height="50" viewBox="0 0 50 50" fill="none" xmlns="http://www.w3.org/2000/svg">
<path d="M12.5 29.1667C12.5 30.9722 12.8646 32.6823 13.5937 34.2969C14.3229 35.9115 15.3646 37.3264 16.7187 38.5417C16.684 38.3681 16.6666 38.2118 16.6666 38.0729V37.6042C16.6666 36.4931 16.875 35.4514 17.2916 34.4792C17.7083 33.5069 18.316 32.6215 19.1146 31.8229L25 26.0417L30.8854 31.8229C31.684 32.6215 32.2916 33.5069 32.7083 34.4792C33.125 35.4514 33.3333 36.4931 33.3333 37.6042V38.0729C33.3333 38.2118 33.316 38.3681 33.2812 38.5417C34.6354 37.3264 35.6771 35.9115 36.4062 34.2969C37.1354 32.6823 37.5 30.9722 37.5 29.1667C37.5 27.4306 37.1788 25.7899 36.5364 24.2448C35.8941 22.6997 34.9653 21.3194 33.75 20.1042C33.0555 20.5556 32.3264 20.8941 31.5625 21.1198C30.7986 21.3455 30.0173 21.4583 29.2187 21.4583C27.066 21.4583 25.1996 20.7465 23.6198 19.3229C22.0399 17.8993 21.1285 16.1458 20.8854 14.0625C19.5312 15.2083 18.3333 16.3976 17.2916 17.6302C16.25 18.8628 15.3732 20.1128 14.6614 21.3802C13.9496 22.6476 13.4114 23.941 13.0469 25.2604C12.6823 26.5799 12.5 27.8819 12.5 29.1667ZM25 31.875L22.0312 34.7917C21.6493 35.1736 21.3541 35.6076 21.1458 36.0937C20.9375 36.5799 20.8333 37.0833 20.8333 37.6042C20.8333 38.7153 21.2413 39.6701 22.0573 40.4687C22.8732 41.2674 23.8541 41.6667 25 41.6667C26.1458 41.6667 27.1267 41.2674 27.9427 40.4687C28.7587 39.6701 29.1666 38.7153 29.1666 37.6042C29.1666 37.0486 29.0625 36.5365 28.8541 36.0677C28.6458 35.599 28.3507 35.1736 27.9687 34.7917L25 31.875ZM25 6.25V13.125C25 14.3056 25.408 15.2951 26.2239 16.0937C27.0399 16.8924 28.0382 17.2917 29.2187 17.2917C29.8437 17.2917 30.4253 17.1615 30.9635 16.901C31.5017 16.6406 31.9791 16.25 32.3958 15.7292L33.3333 14.5833C35.9028 16.0417 37.934 18.0729 39.4271 20.6771C40.9201 23.2812 41.6666 26.1111 41.6666 29.1667C41.6666 33.8194 40.0521 37.7604 36.8229 40.9896C33.5937 44.2187 29.6528 45.8333 25 45.8333C20.3472 45.8333 16.4062 44.2187 13.1771 40.9896C9.9479 37.7604 8.33331 33.8194 8.33331 29.1667C8.33331 24.6875 9.83505 20.434 12.8385 16.4062C15.842 12.3785 19.8958 8.99306 25 6.25Z" fill="#FF9D00"/>
</svg>
