<svg width="50" height="50" viewBox="0 0 50 50" fill="none" xmlns="http://www.w3.org/2000/svg">
<path d="M32.2917 22.9167C33.1597 22.9167 33.8976 22.6129 34.5052 22.0052C35.1129 21.3976 35.4167 20.6597 35.4167 19.7917C35.4167 18.9236 35.1129 18.1858 34.5052 17.5781C33.8976 16.9705 33.1597 16.6667 32.2917 16.6667C31.4236 16.6667 30.6858 16.9705 30.0781 17.5781C29.4705 18.1858 29.1667 18.9236 29.1667 19.7917C29.1667 20.6597 29.4705 21.3976 30.0781 22.0052C30.6858 22.6129 31.4236 22.9167 32.2917 22.9167ZM17.7084 22.9167C18.5764 22.9167 19.3143 22.6129 19.9219 22.0052C20.5295 21.3976 20.8334 20.6597 20.8334 19.7917C20.8334 18.9236 20.5295 18.1858 19.9219 17.5781C19.3143 16.9705 18.5764 16.6667 17.7084 16.6667C16.8403 16.6667 16.1025 16.9705 15.4948 17.5781C14.8872 18.1858 14.5834 18.9236 14.5834 19.7917C14.5834 20.6597 14.8872 21.3976 15.4948 22.0052C16.1025 22.6129 16.8403 22.9167 17.7084 22.9167ZM31.4323 34.4531C33.3594 33.1163 34.757 31.3542 35.625 29.1667H32.1875C31.4236 30.4514 30.408 31.467 29.1406 32.2136C27.8733 32.9601 26.4931 33.3334 25 33.3334C23.507 33.3334 22.1268 32.9601 20.8594 32.2136C19.592 31.467 18.5764 30.4514 17.8125 29.1667H14.375C15.2431 31.3542 16.6406 33.1163 18.5677 34.4531C20.4948 35.79 22.6389 36.4584 25 36.4584C27.3611 36.4584 29.5052 35.79 31.4323 34.4531ZM16.875 44.1927C14.3403 43.099 12.1354 41.6146 10.2604 39.7396C8.38544 37.8646 6.90106 35.6597 5.80731 33.125C4.71356 30.5903 4.16669 27.882 4.16669 25C4.16669 22.1181 4.71356 19.4097 5.80731 16.875C6.90106 14.3403 8.38544 12.1354 10.2604 10.2604C12.1354 8.38544 14.3403 6.90106 16.875 5.80731C19.4097 4.71356 22.1181 4.16669 25 4.16669C27.882 4.16669 30.5903 4.71356 33.125 5.80731C35.6597 6.90106 37.8646 8.38544 39.7396 10.2604C41.6146 12.1354 43.099 14.3403 44.1927 16.875C45.2865 19.4097 45.8334 22.1181 45.8334 25C45.8334 27.882 45.2865 30.5903 44.1927 33.125C43.099 35.6597 41.6146 37.8646 39.7396 39.7396C37.8646 41.6146 35.6597 43.099 33.125 44.1927C30.5903 45.2865 27.882 45.8334 25 45.8334C22.1181 45.8334 19.4097 45.2865 16.875 44.1927ZM36.8229 36.8229C40.0521 33.5938 41.6667 29.6528 41.6667 25C41.6667 20.3472 40.0521 16.4063 36.8229 13.1771C33.5938 9.94794 29.6528 8.33335 25 8.33335C20.3472 8.33335 16.4063 9.94794 13.1771 13.1771C9.94794 16.4063 8.33335 20.3472 8.33335 25C8.33335 29.6528 9.94794 33.5938 13.1771 36.8229C16.4063 40.0521 20.3472 41.6667 25 41.6667C29.6528 41.6667 33.5938 40.0521 36.8229 36.8229Z" fill="#5CC541"/>
</svg>
