<svg width="207" height="57" viewBox="0 0 207 57" fill="none" xmlns="http://www.w3.org/2000/svg">
<path fill-rule="evenodd" clip-rule="evenodd" d="M46.1256 21.8863V19.7407H63.0481V21.8863H46.1256ZM49.0949 22.9714H50.2412V28.4505H49.0949V22.9714ZM55.6536 22.9714H56.7998V28.4505H55.6536V22.9714ZM52.3739 22.9714H53.5202V28.4505H52.3739V22.9714ZM58.9325 22.9714H60.0788V28.4505H58.9325V22.9714ZM60.1638 41.5657L54.0319 43.2933L59.9174 39.4034L59.6696 37.2309L54.0326 38.8186C56.7817 36.9104 60.4706 32.644 62.9877 32.644H63.0488V29.481H46.1271V32.644H46.1867C48.818 32.644 49.8836 33.9127 49.7128 35.4101L47.2603 56.9002C35.4965 53.8158 26.6598 43.4826 25.7934 30.9493L45.1523 27.1592C45.4264 27.1053 45.619 26.8708 45.619 26.5911C45.619 26.3114 45.4264 26.0776 45.1523 26.0238L26.468 22.3655C29.4314 9.55099 40.8957 2.28882e-05 54.5872 2.28882e-05C68.2787 2.28882e-05 79.743 9.55099 82.7065 22.3655L64.0221 26.0238C63.7488 26.0776 63.5554 26.3122 63.5554 26.5911C63.5554 26.87 63.7488 27.1053 64.0221 27.1592L83.381 30.9493C82.5146 43.4826 73.6779 53.8173 61.9141 56.9016L61.6481 54.5718L54.0312 56.7174L61.401 52.4087L61.1531 50.2362L54.0312 52.2427L60.906 48.0739L60.6581 45.9013L54.0312 47.768L60.411 43.7383L60.1631 41.5657H60.1638ZM54.9703 8.31943C55.5721 8.48694 56.0141 9.04045 56.0141 9.69738C56.0141 10.3092 55.6303 10.8313 55.0902 11.036V12.6412L61.6147 18.2979H47.559L54.0828 12.6412V11.036C53.5434 10.8321 53.1596 10.3099 53.1596 9.69811C53.1596 9.04118 53.6016 8.4884 54.2034 8.32016L54.4426 5.09305C54.4484 5.0173 54.5109 4.95904 54.5865 4.95831C54.6628 4.95831 54.7261 5.01657 54.7319 5.09305L54.971 8.32016L54.9703 8.31943Z" fill="#E6FF5B"/>
<path fill-rule="evenodd" clip-rule="evenodd" d="M71.4086 24.5781L111.05 16.8158L71.6455 21.1521L71.4086 24.5781Z" fill="#E6FF5B"/>
<path fill-rule="evenodd" clip-rule="evenodd" d="M43.415 27.4991L0 35.9984L32.9566 32.638L43.415 27.4991Z" fill="#E6FF5B"/>
<path d="M113.746 36.4508V16.5988H117.246V33.6508L116.91 33.3148H125.646V36.4508H113.746ZM143.424 16.5988V29.1148C143.424 30.1788 143.228 31.1775 142.836 32.1108C142.444 33.0441 141.893 33.8561 141.184 34.5468C140.493 35.2375 139.663 35.7881 138.692 36.1988C137.721 36.5908 136.667 36.7868 135.528 36.7868C134.371 36.7868 133.307 36.5908 132.336 36.1988C131.365 35.7881 130.525 35.2375 129.816 34.5468C129.125 33.8561 128.584 33.0441 128.192 32.1108C127.8 31.1775 127.604 30.1788 127.604 29.1148V16.5988H131.104V28.8628C131.104 29.4975 131.207 30.1041 131.412 30.6828C131.636 31.2428 131.935 31.7281 132.308 32.1388C132.7 32.5308 133.167 32.8481 133.708 33.0908C134.249 33.3335 134.856 33.4548 135.528 33.4548C136.163 33.4548 136.751 33.3335 137.292 33.0908C137.833 32.8481 138.3 32.5308 138.692 32.1388C139.084 31.7281 139.383 31.2428 139.588 30.6828C139.812 30.1041 139.924 29.4975 139.924 28.8628V16.5988H143.424ZM158.566 35.6388H157.614L151.93 24.4948L152.126 24.4388L150.11 36.4508H146.554L149.998 16.3188H151.062L158.258 30.2348H157.95L165.118 16.3188H166.182L169.626 36.4508H166.07L164.054 24.4388L164.25 24.4948L158.566 35.6388ZM176.216 24.9148H184.196V27.9948H176.216V24.9148ZM173.164 16.5988H185.792V19.7068H176.3L176.636 19.3708V33.6508L176.3 33.3148H186.128V36.4508H173.164V16.5988ZM189.762 36.4508V16.3188H190.826L203.118 29.5068L202.866 29.5908V16.5988H206.366V36.7588H205.302L193.038 23.5988L193.262 23.4868V36.4508H189.762Z" fill="white"/>
</svg>
