<svg width="259" height="75" viewBox="0 0 259 75" fill="none" xmlns="http://www.w3.org/2000/svg">
<path fill-rule="evenodd" clip-rule="evenodd" d="M60.6423 28.7744V25.9535H82.8906V28.7744H60.6423ZM64.5461 30.2011H66.0532V37.4045H64.5461V30.2011ZM73.1689 30.2011H74.6759V37.4045H73.1689V30.2011ZM68.857 30.2011H70.3641V37.4045H68.857V30.2011ZM77.4798 30.2011H78.9868V37.4045H77.4798V30.2011ZM79.0986 54.6475L71.0368 56.9187L78.7747 51.8046L78.4488 48.9483L71.0378 51.0357C74.652 48.527 79.5019 42.9179 82.8113 42.9179H82.8916V38.7594H60.6442V42.9179H60.7226C64.182 42.9179 65.583 44.5859 65.3584 46.5545L62.1341 74.808C46.668 70.7529 35.0503 57.1677 33.9111 40.6897L59.3627 35.7068C59.723 35.6359 59.9762 35.3276 59.9762 34.9599C59.9762 34.5923 59.723 34.2849 59.3627 34.214L34.798 29.4044C38.6941 12.5569 53.7665 0 71.767 0C89.7674 0 104.84 12.5569 108.736 29.4044L84.1712 34.214C83.8119 34.2849 83.5577 34.5932 83.5577 34.9599C83.5577 35.3267 83.8119 35.6359 84.1712 35.7068L109.623 40.6897C108.484 57.1677 96.8659 70.7548 81.3998 74.8099L81.0501 71.7468L71.0359 74.5677L80.7251 68.903L80.3993 66.0467L71.0359 68.6847L80.0743 63.2038L79.7485 60.3476L71.0359 62.8017L79.4235 57.5037L79.0977 54.6475H79.0986ZM72.2706 10.9377C73.0618 11.158 73.6429 11.8857 73.6429 12.7494C73.6429 13.5537 73.1383 14.2402 72.4283 14.5093V16.6196L81.0061 24.0567H62.5269L71.1037 16.6196V14.5093C70.3946 14.2412 69.8901 13.5546 69.8901 12.7503C69.8901 11.8866 70.4711 11.1599 71.2624 10.9387L71.5768 6.69592C71.5844 6.59634 71.6666 6.51974 71.766 6.51878C71.8663 6.51878 71.9495 6.59538 71.9571 6.69592L72.2715 10.9387L72.2706 10.9377Z" fill="#E6FF5B"/>
<path fill-rule="evenodd" clip-rule="evenodd" d="M93.8823 32.3134L146 22.1081L94.1939 27.8092L93.8823 32.3134Z" fill="#E6FF5B"/>
<path fill-rule="evenodd" clip-rule="evenodd" d="M57.0785 36.1537L0 47.328L43.3288 42.91L57.0785 36.1537Z" fill="#E6FF5B"/>
<path d="M148.681 46.405V23.589H154.025V42.053L153.641 41.669H163.049V46.405H148.681ZM183.904 23.589V37.637C183.904 38.917 183.67 40.1223 183.2 41.253C182.731 42.3623 182.08 43.333 181.248 44.165C180.416 44.9756 179.414 45.6156 178.24 46.085C177.067 46.5543 175.776 46.789 174.368 46.789C172.939 46.789 171.638 46.5543 170.464 46.085C169.291 45.6156 168.288 44.9756 167.456 44.165C166.624 43.333 165.974 42.3623 165.504 41.253C165.056 40.1223 164.832 38.917 164.832 37.637V23.589H170.176V37.253C170.176 37.9143 170.272 38.5223 170.464 39.077C170.656 39.6316 170.934 40.1116 171.296 40.517C171.68 40.901 172.128 41.2103 172.64 41.445C173.152 41.6583 173.728 41.765 174.368 41.765C174.987 41.765 175.552 41.6583 176.064 41.445C176.598 41.2103 177.046 40.901 177.408 40.517C177.771 40.1116 178.048 39.6316 178.24 39.077C178.432 38.5223 178.528 37.9143 178.528 37.253V23.589H183.904ZM201.17 45.349H199.73L193.874 34.661L194.098 34.597L192.37 46.405H186.994L190.642 23.205H192.274L200.658 37.477H200.242L208.658 23.205H210.258L213.906 46.405H208.562L206.77 34.597L206.994 34.661L201.17 45.349ZM222.232 32.677H230.744V37.157H222.232V32.677ZM217.4 23.589H232.504V28.197H222.328L222.712 27.813V42.149L222.328 41.765H232.984V46.405H217.4V23.589ZM236.556 46.405V23.173H238.188L251.308 36.453L251.02 36.581V23.589H256.332V46.789H254.7L241.58 33.541L241.868 33.413V46.405H236.556Z" fill="white"/>
</svg>
